<?xml version="1.0" standalone="no"?>
<!DOCTYPE svg PUBLIC "-//W3C//DTD SVG 20010904//EN"
 "http://www.w3.org/TR/2001/REC-SVG-20010904/DTD/svg10.dtd">
<svg version="1.0" xmlns="http://www.w3.org/2000/svg"
 width="3607.000000pt" height="3607.000000pt" viewBox="0 0 3607.000000 3607.000000"
 preserveAspectRatio="xMidYMid meet">
<metadata>
Created by potrace 1.14, written by Peter Selinger 2001-2017
</metadata>
<g transform="translate(0.000000,3607.000000) scale(0.100000,-0.100000)"
fill="#000000" stroke="none">
<path d="M5509 19463 l-46 -4 -28 -130 c-15 -71 -26 -132 -23 -135 3 -3 129
-14 279 -24 294 -21 339 -29 375 -65 20 -20 24 -34 24 -87 0 -157 -96 -665
-229 -1218 -22 -91 -60 -259 -86 -375 -25 -115 -63 -275 -85 -355 -21 -80 -96
-365 -165 -635 -114 -442 -274 -1018 -294 -1054 -8 -16 -212 -103 -368 -158
-56 -19 -109 -44 -119 -54 -17 -19 -47 -147 -35 -152 3 -2 175 0 381 4 602 11
1278 10 2130 -3 913 -13 1560 0 1825 37 l40 6 34 97 c103 300 266 725 359 940
l41 92 -192 0 -192 -1 -62 -127 c-78 -160 -277 -509 -307 -541 -20 -19 -45
-26 -151 -42 -450 -65 -1107 -84 -1897 -53 l-168 7 6 41 c35 239 189 902 434
1866 375 1481 425 1656 483 1718 70 75 164 99 452 113 121 6 240 14 264 17
l44 7 28 104 c15 57 31 116 34 131 l6 28 -1213 -2 c-667 0 -1285 2 -1373 5
-88 3 -181 4 -206 2z"/>
<path d="M33964 19356 c-197 -45 -389 -166 -520 -331 -109 -135 -179 -300
-203 -475 -11 -86 4 -286 29 -385 127 -499 701 -806 1192 -639 398 135 671
563 628 982 -28 264 -165 523 -355 669 -87 67 -225 136 -330 164 -102 28 -347
36 -441 15z m411 -131 c449 -123 707 -640 544 -1090 -40 -111 -112 -217 -210
-309 -88 -83 -158 -128 -264 -171 -400 -160 -862 50 -1028 466 -68 171 -80
356 -33 514 69 230 168 365 358 489 158 103 249 128 438 122 81 -3 159 -11
195 -21z"/>
<path d="M33930 18995 c-63 -7 -121 -14 -127 -14 -10 -1 -13 -118 -13 -551 l0
-550 105 0 105 0 0 245 0 245 24 0 c54 0 182 -23 211 -37 40 -20 74 -52 91
-84 7 -15 34 -98 59 -185 25 -87 51 -164 57 -171 7 -9 41 -13 114 -13 57 0
104 2 104 4 0 2 -10 25 -21 52 -12 26 -39 107 -61 179 -56 185 -96 244 -190
282 -40 16 -50 33 -20 33 54 1 169 85 213 156 30 48 30 173 1 230 -75 147
-330 217 -652 179z m352 -135 c30 -11 64 -30 76 -43 64 -68 53 -197 -24 -269
-52 -48 -117 -70 -231 -76 l-103 -5 0 213 0 213 113 -6 c78 -4 131 -13 169
-27z"/>
<path d="M18645 19204 c-512 -21 -1035 -123 -1420 -276 -293 -117 -614 -324
-752 -485 -26 -30 -62 -65 -80 -77 -18 -13 -67 -66 -109 -120 -224 -286 -349
-577 -416 -966 -18 -103 -22 -166 -22 -365 -1 -154 4 -269 12 -320 71 -429
186 -702 417 -990 363 -452 877 -751 1521 -885 612 -127 1385 -116 2094 30
134 27 946 255 962 269 5 4 4 43 -2 86 -18 155 -31 372 -30 545 0 185 30 545
46 559 5 4 71 30 147 57 l137 48 0 101 0 100 -1070 0 -1070 0 0 -127 0 -126
58 -6 c31 -3 102 -8 157 -11 171 -10 408 -35 470 -50 32 -7 65 -21 72 -31 19
-26 32 -81 44 -177 13 -107 13 -591 0 -687 -6 -41 -11 -82 -11 -90 0 -8 -4
-21 -9 -28 -21 -33 -381 -138 -606 -177 -275 -48 -677 -19 -937 66 -117 38
-284 110 -373 162 -197 113 -498 388 -605 552 -78 120 -206 386 -245 509 -41
129 -79 303 -96 441 -15 125 -15 411 0 530 57 438 219 792 484 1053 121 120
200 182 335 264 202 122 477 210 792 255 175 24 596 24 765 0 216 -32 438 -93
595 -164 141 -64 352 -219 385 -283 19 -36 42 -219 51 -393 l7 -137 147 0 147
0 11 78 c7 42 21 165 32 272 24 226 52 411 80 521 27 104 26 140 -4 168 -31
30 -286 106 -531 161 -299 66 -587 107 -900 129 -158 11 -559 20 -680 15z"/>
<path d="M26870 19199 c-485 -22 -933 -116 -1306 -274 -255 -108 -540 -295
-738 -484 -79 -76 -249 -279 -309 -371 -124 -189 -226 -450 -273 -698 -32
-169 -43 -467 -25 -644 54 -500 258 -966 564 -1285 559 -584 1433 -859 2552
-804 127 6 268 16 315 22 290 34 749 166 995 284 80 39 93 55 187 245 l57 115
-37 38 c-45 47 -45 47 -219 -26 -447 -189 -908 -265 -1424 -237 -376 20 -622
80 -904 220 -152 75 -246 136 -363 234 -170 143 -327 344 -450 576 -248 468
-273 1222 -58 1751 162 400 509 710 961 858 260 85 493 116 813 108 296 -7
490 -41 752 -132 137 -48 194 -79 326 -178 141 -106 144 -113 156 -311 5 -83
12 -198 16 -256 l7 -105 148 -3 c81 -1 147 1 147 5 0 29 32 414 40 483 17 142
48 300 80 410 36 127 37 145 6 165 -41 27 -345 117 -560 166 -302 69 -638 113
-981 129 -229 10 -234 10 -475 -1z"/>
<path d="M12355 19193 c-469 -37 -820 -127 -1170 -298 -461 -225 -828 -601
-1014 -1040 -121 -284 -174 -598 -175 -1030 0 -241 8 -325 44 -501 48 -233
183 -546 312 -726 97 -133 216 -274 267 -315 25 -20 53 -44 61 -54 32 -36 240
-180 345 -238 423 -235 987 -361 1614 -361 724 0 1302 151 1785 466 80 53 144
109 314 278 176 175 225 229 281 316 216 332 320 606 373 985 17 124 17 573 0
690 -66 435 -208 785 -408 1005 -33 36 -73 83 -89 105 -36 46 -253 222 -380
307 -137 91 -363 199 -537 256 -352 116 -745 164 -1313 160 -148 -1 -288 -3
-310 -5z m650 -359 c274 -37 550 -144 692 -266 198 -171 271 -263 378 -478
185 -371 255 -708 255 -1235 0 -538 -104 -953 -318 -1274 -117 -177 -341 -371
-523 -455 -442 -203 -1089 -192 -1546 25 -350 166 -666 619 -799 1145 -61 244
-68 313 -67 668 2 354 12 490 49 676 45 227 138 462 249 630 64 97 223 253
329 324 303 203 579 273 1026 260 91 -3 215 -12 275 -20z"/>
<path d="M31452 19053 c-89 -189 -184 -399 -597 -1323 -467 -1046 -420 -943
-819 -1783 -335 -706 -394 -817 -474 -889 -46 -41 -50 -42 -244 -58 -76 -6
-144 -13 -153 -16 -12 -5 -15 -30 -15 -143 l0 -136 737 0 c406 0 775 -3 821
-8 l82 -7 0 130 0 130 -25 10 c-14 5 -119 19 -232 30 -130 13 -219 27 -240 37
-49 23 -67 63 -60 138 7 98 170 563 278 795 37 80 45 90 73 95 17 3 427 4 911
3 l879 -3 29 -75 c15 -41 85 -208 154 -370 160 -375 183 -438 183 -501 0 -97
-68 -127 -305 -135 -82 -3 -169 -7 -192 -10 l-43 -5 0 -130 0 -130 213 8 c276
10 1385 8 1687 -5 129 -5 256 -7 281 -5 l46 5 8 125 c3 68 4 127 1 130 -2 3
-44 9 -93 14 -165 17 -246 31 -300 51 -50 18 -56 25 -105 106 -78 132 -261
498 -388 777 -146 323 -259 566 -520 1125 -116 250 -240 518 -275 596 -35 77
-102 221 -150 320 -85 175 -245 517 -439 939 -53 116 -107 228 -119 250 l-23
40 -255 3 -256 2 -61 -127z m376 -1819 l368 -799 -70 -2 c-523 -19 -707 -21
-1036 -11 -201 6 -366 12 -368 13 -2 2 162 363 364 804 203 440 369 799 371
797 2 -2 169 -363 371 -802z"/>
<path d="M23750 19140 c-41 -4 -240 -13 -442 -20 -354 -13 -919 -7 -1575 17
l-173 6 0 -132 c0 -96 3 -133 13 -136 6 -2 111 -11 232 -19 121 -8 237 -21
259 -28 49 -16 88 -55 104 -104 23 -71 32 -350 41 -1289 11 -1260 -6 -2173
-44 -2300 -33 -113 -109 -142 -425 -160 -58 -3 -123 -8 -144 -12 l-39 -5 6
-125 c3 -68 8 -127 11 -130 3 -4 354 -1 779 6 565 8 868 9 1131 1 198 -6 363
-13 368 -16 5 -3 7 57 6 133 l-3 138 -150 7 c-198 10 -279 23 -344 56 -63 31
-94 79 -111 172 -21 110 -33 707 -33 1655 0 1544 9 1788 70 1908 29 58 169 91
435 103 l136 7 6 30 c3 16 6 78 6 138 0 107 0 109 -22 107 -13 -1 -57 -4 -98
-8z"/>
<path d="M9219 14973 c-47 -72 -80 -80 -454 -105 -206 -13 -873 -15 -2530 -8
l-970 5 -170 -66 c-302 -117 -534 -220 -830 -369 -244 -123 -610 -323 -638
-350 -8 -7 -117 -271 -244 -590 -36 -91 -103 -255 -148 -365 -45 -110 -85
-209 -89 -220 -4 -16 50 8 257 110 1893 940 3532 1245 5192 964 404 -69 786
-164 1220 -306 61 -20 252 -91 425 -158 2508 -977 3758 -1362 4870 -1499 971
-120 1772 -48 3215 290 281 66 1997 492 2001 497 5 5 -24 1188 -29 1193 -3 3
-50 -26 -105 -64 -111 -80 -344 -233 -347 -229 -1 1 1 94 6 207 9 227 11 600
5 600 -3 0 -92 -53 -198 -118 -1087 -667 -1931 -1032 -2783 -1206 -1186 -241
-2437 -102 -3905 434 -102 37 -351 141 -555 230 -1159 508 -1955 814 -2650
1020 -175 52 -499 140 -516 140 -3 0 -17 -17 -30 -37z"/>
<path d="M25970 14158 c-266 -38 -477 -208 -550 -443 -27 -89 -30 -236 -5
-322 67 -231 264 -378 556 -414 79 -9 117 -8 273 10 99 12 201 26 226 32 l45
10 -2 292 -2 292 -257 3 c-181 2 -261 -1 -270 -9 -9 -8 -14 -34 -14 -80 0 -95
7 -99 175 -99 l130 0 -3 -129 -3 -130 -45 -7 c-86 -13 -274 1 -335 25 -163 63
-234 180 -234 386 0 105 2 114 33 177 76 155 238 231 492 230 76 0 154 -7 199
-16 89 -20 91 -18 91 74 0 70 -4 81 -35 98 -50 26 -336 39 -465 20z"/>
<path d="M29165 14159 c-130 -19 -242 -76 -293 -152 -79 -116 -79 -283 0 -372
61 -71 124 -97 355 -149 217 -50 263 -78 263 -162 0 -122 -150 -186 -388 -163
-84 8 -228 36 -274 54 -16 7 -18 -1 -18 -82 l0 -90 73 -21 c39 -12 92 -27 117
-34 76 -21 330 -15 422 10 153 42 255 116 303 223 24 53 27 71 23 128 -6 78
-30 130 -88 187 -63 63 -134 92 -314 130 -182 38 -240 63 -268 114 -44 81 6
163 118 196 77 22 223 14 362 -20 57 -14 107 -26 113 -26 5 0 9 40 9 90 0 90
0 90 -27 96 -16 3 -53 12 -83 20 -124 30 -288 40 -405 23z"/>
<path d="M30380 14155 c-188 -37 -338 -143 -412 -289 -64 -127 -87 -318 -53
-451 52 -205 214 -362 435 -421 90 -24 291 -25 380 -1 325 86 514 387 445 710
-61 288 -309 469 -637 466 -51 0 -122 -7 -158 -14z m252 -176 c70 -15 161 -64
200 -108 99 -113 129 -322 68 -483 -28 -76 -104 -159 -178 -195 -53 -26 -66
-28 -177 -28 -111 0 -125 2 -182 29 -163 75 -246 277 -202 488 46 219 245 344
471 297z"/>
<path d="M20650 13575 l0 -575 445 0 445 0 0 90 0 90 -325 0 -325 0 0 155 0
155 263 2 262 3 3 84 c2 61 -1 87 -10 92 -7 5 -127 9 -265 9 l-253 0 0 140 0
140 293 0 c160 0 297 4 303 8 20 13 26 53 19 118 l-7 64 -424 0 -424 0 0 -575z"/>
<path d="M21760 14143 c-8 -3 -18 -11 -22 -17 -4 -6 -8 -257 -8 -558 0 -502 1
-548 17 -564 15 -14 32 -16 119 -11 56 2 108 8 115 12 9 6 11 87 6 374 -4 201
-10 386 -14 411 -6 42 -5 44 11 31 9 -8 49 -60 89 -115 80 -112 522 -659 557
-691 24 -22 134 -33 215 -20 l45 6 0 575 0 574 -114 0 c-90 0 -116 -3 -126
-15 -11 -13 -12 -88 -7 -363 4 -191 9 -374 13 -407 l5 -60 -21 25 c-11 14 -47
61 -79 105 -31 44 -144 186 -250 315 -106 129 -221 272 -255 317 l-61 83 -110
-1 c-60 0 -117 -3 -125 -6z"/>
<path d="M23150 13575 l0 -575 445 0 445 0 0 90 0 90 -325 0 -325 0 0 155 0
155 260 0 c298 0 280 -6 280 99 0 94 10 91 -286 91 l-254 0 0 140 0 140 291 0
c181 0 298 4 310 10 16 9 19 22 19 95 l0 85 -430 0 -430 0 0 -575z"/>
<path d="M24250 13577 c0 -515 2 -575 16 -581 26 -10 184 -7 205 4 18 10 19
23 19 224 l0 213 44 6 c66 9 111 -2 143 -35 15 -16 94 -113 174 -216 l145
-187 147 -3 c81 -1 147 0 147 3 0 2 -86 109 -191 237 l-191 231 51 14 c71 18
106 38 158 89 68 69 98 141 98 239 0 95 -19 139 -88 202 -57 52 -108 79 -205
105 -68 18 -114 21 -374 26 l-298 4 0 -575z m550 382 c77 -12 117 -33 147 -79
37 -54 27 -128 -24 -182 -49 -51 -121 -70 -285 -76 l-147 -4 -3 170 -3 171 30
4 c65 8 223 6 285 -4z"/>
<path d="M26752 13578 l3 -573 123 -3 122 -3 0 576 0 575 -125 0 -125 0 2
-572z"/>
<path d="M27651 14133 c-5 -10 -36 -79 -69 -153 -33 -74 -137 -304 -232 -510
-95 -206 -181 -396 -191 -422 l-19 -48 128 0 127 0 39 88 c21 48 48 112 61
142 l24 55 248 3 249 2 64 -145 65 -145 127 0 c100 0 126 3 122 13 -2 7 -118
265 -257 572 l-253 560 -111 3 c-99 2 -113 1 -122 -15z m203 -466 c42 -99 76
-183 76 -188 0 -10 -303 -13 -313 -3 -7 7 26 96 75 204 19 41 43 99 53 128 9
30 21 50 25 45 4 -4 42 -88 84 -186z"/>
<path d="M31380 13575 l0 -575 430 0 430 0 0 90 0 90 -305 0 -305 0 0 485 0
485 -125 0 -125 0 0 -575z"/>
<path d="M32797 14113 c-12 -21 -65 -135 -118 -253 -54 -118 -159 -350 -234
-515 -75 -165 -139 -310 -142 -322 -5 -23 -5 -23 119 -23 l125 0 28 63 c15 34
43 98 61 142 l33 80 254 3 253 2 16 -47 c9 -27 36 -92 60 -145 l43 -97 127 -1
128 0 -20 50 c-11 27 -63 143 -116 257 -53 114 -159 347 -236 517 -76 171
-144 313 -151 318 -6 4 -56 8 -110 8 l-98 0 -22 -37z m178 -378 c26 -66 60
-146 76 -177 46 -92 52 -88 -125 -88 -89 0 -157 4 -161 10 -3 5 3 26 13 47 11
21 45 101 77 178 59 145 65 158 70 153 1 -2 24 -57 50 -123z"/>
<path d="M33690 13576 l0 -576 120 0 120 0 0 220 0 220 48 2 c91 4 116 -1 137
-25 11 -13 92 -112 180 -219 124 -152 166 -197 189 -202 42 -9 219 -7 234 3
16 10 -29 72 -175 241 -117 136 -183 219 -183 230 0 4 21 13 48 19 103 26 194
108 233 210 25 68 23 175 -5 233 -42 86 -139 153 -273 190 -69 18 -113 21
-375 26 l-298 4 0 -576z m535 383 c139 -20 192 -70 183 -171 -3 -27 -14 -61
-25 -76 -44 -59 -165 -92 -340 -92 l-113 0 0 169 0 170 33 4 c65 8 194 6 262
-4z"/>
</g>
</svg>
